# xmcd CD database file
#
# Track frame offsets:
#	150
#	21403
#	46734
#	64575
#	85821
#	112340
#	125750
#	147109
#	167665
#	192683
#	208156
#	236623
#
# Disc length: 3558 seconds
#
# Revision: 0
# Processed by: cddbd v1.5.2PL0 Copyright (c) Steve Scherf et al.
# Submitted via: CDex 1.51
#
DISCID=b30de40c
DTITLE=Misterioso - Divertissement
DYEAR=1998
DGENRE=Jazz
TTITLE0=Dynel
TTITLE1=Il sogno (desiderio) di Sant' Orsola
TTITLE2=Infanti Insofferenti
TTITLE3=Sig. Colombo e signora
TTITLE4=Il Lumacone Volante
TTITLE5=Tipptopp
TTITLE6=Rol
TTITLE7=Montag
TTITLE8=Lungo l'acquedotto
TTITLE9=Affanni di un vecchio imprenditore
TTITLE10=Bummel
TTITLE11=Notte ad Abbiategrasso
EXTD=YEAR: 1998
EXTT0=
EXTT1=
EXTT2=
EXTT3=
EXTT4=
EXTT5=
EXTT6=
EXTT7=
EXTT8=
EXTT9=
EXTT10=
EXTT11=
PLAYORDER=
